<svg width="125" height="73" viewBox="0 0 125 73" fill="none" xmlns="http://www.w3.org/2000/svg">
<path d="M10.4575 57.1543V23.5914H10.7035L29.1578 57.1543H37.8929V0H27.4354V33.2387H27.1894L8.79657 0H0V57.1543H10.4575Z" fill="#14191D"/>
<path d="M44.4229 0V57.1543H62.016C75.1186 57.1543 82.8079 46.5342 82.8079 28.2934C82.8079 10.0527 75.1186 0 62.016 0H44.4229ZM55.4339 11.7551H60.6012C67.5523 11.7551 71.6122 17.5922 71.6122 28.2934C71.6122 39.7243 67.7984 45.3992 60.6012 45.3992H55.4339V11.7551Z" fill="#14191D"/>
<path d="M83.7236 57.1543H95.4114L103.839 38.5893H104.085L112.512 57.1543H124.877L111.221 28.6177V28.3745L125 0H112.758L104.762 19.3757H104.516L96.5802 0H83.7236L96.9492 28.2123V28.5366L83.7236 57.1543Z" fill="#14191D"/>
<path d="M0.019043 59.822V72.2428H2.91998C5.78081 72.2428 7.41175 69.9877 7.41175 66.0236C7.41175 62.0947 5.78081 59.822 2.91998 59.822H0.019043ZM0.540409 60.4562H2.90661C5.45997 60.4562 6.89038 62.4471 6.89038 66.0412C6.89038 69.6177 5.45997 71.6085 2.90661 71.6085H0.540409V60.4562Z" fill="#7B61FF"/>
<path d="M30.0059 71.6085H25.0329V66.1821H29.7787V65.5655H25.0329V60.4562H30.0059V59.822H24.5249V72.2428H30.0059V71.6085Z" fill="#7B61FF"/>
<path d="M47.4707 68.9308C47.5509 70.9922 48.9279 72.4192 50.8663 72.4192C52.8314 72.4192 54.1415 70.9922 54.1415 68.9308C54.1415 67.2747 53.326 66.3586 51.5079 65.7596L50.4518 65.4072C48.9412 64.9139 48.2461 64.1915 48.2461 62.9583C48.2461 61.3903 49.3824 60.2803 50.7994 60.2803C52.2833 60.2803 53.3795 61.355 53.4597 62.8526H53.9677C53.9143 61.0203 52.5908 59.6461 50.8128 59.6461C49.0883 59.6461 47.7247 61.0379 47.7247 62.9759C47.7247 64.5263 48.5134 65.46 50.2513 66.0414L51.3743 66.4114C52.9517 66.94 53.6201 67.6799 53.6201 68.9837C53.6201 70.6046 52.4972 71.8026 50.9064 71.8026C49.2621 71.8026 48.0589 70.6222 47.9787 68.9308H47.4707Z" fill="#7B61FF"/>
<path d="M74.6259 59.822H74.1045V72.2428H74.6259V59.822Z" fill="#7B61FF"/>
<path d="M101.859 67.3276V66.0943H98.0628V66.7286H101.351V67.4333C101.351 70.1112 100.095 71.785 98.0628 71.785C95.9238 71.785 94.4667 69.4418 94.4667 65.9534C94.4667 62.5178 95.8837 60.2803 98.0628 60.2803C99.6536 60.2803 100.91 61.5136 101.285 63.4163H101.806C101.458 61.1612 99.9611 59.6461 98.0628 59.6461C95.5896 59.6461 93.9453 62.1655 93.9453 65.971C93.9453 69.8117 95.6164 72.4192 98.0628 72.4192C100.429 72.4192 101.859 70.4988 101.859 67.3276Z" fill="#7B61FF"/>
<path d="M118.422 72.2428V61.0024H118.462L124.504 72.2428H124.999V59.822H124.477V71.0095H124.437L118.448 59.822H117.914V72.2428H118.422Z" fill="#7B61FF"/>
</svg>
