<svg width="246" height="98" viewBox="0 0 246 98" fill="none" xmlns="http://www.w3.org/2000/svg">
<circle cx="8.11527" cy="87.1128" r="8.11527" fill="#7B61FF"/>
<path d="M44.0543 2.48211L53.3289 2.48211L27.8239 95.2281L18.5493 95.2281L44.0543 2.48211Z" fill="#7B61FF"/>
<path d="M59.5707 39.8865H72.3511L72.4717 50.0144C73.9989 46.6384 76.4103 43.8653 79.7059 41.6951C83.0015 39.5248 86.8597 38.4397 91.2806 38.4397C96.9875 38.4397 101.368 39.6454 104.423 42.0568C107.477 44.3878 109.527 47.6834 110.572 51.9435C111.617 56.2036 112.139 61.7498 112.139 68.5821V95.228H99.1176V68.9438C99.1176 61.9508 98.4344 56.9271 97.0679 53.8726C95.7015 50.7378 92.8882 49.1704 88.628 49.1704C86.2166 49.1704 83.7651 49.934 81.2733 51.4612C78.7815 52.9081 76.6916 55.0381 75.0037 57.8514C73.3961 60.6647 72.5923 63.9603 72.5923 67.7381V95.228H59.5707V39.8865Z" fill="#211F30"/>
<path d="M147.343 96.4337C142.359 96.4337 137.737 95.2682 133.477 92.9372C129.298 90.5258 125.922 87.1499 123.349 82.8094C120.858 78.3885 119.612 73.2442 119.612 67.3764C119.612 58.615 122.063 51.622 126.967 46.3973C131.87 41.0922 138.501 38.4397 146.861 38.4397C151.523 38.4397 155.783 39.6052 159.641 41.9362C163.499 44.1869 166.112 46.9198 167.478 50.135L166.875 40.7305V6.6093H179.656V95.228H167.237L166.996 85.4619C165.629 88.3556 163.138 90.9277 159.52 93.1784C155.903 95.3486 151.844 96.4337 147.343 96.4337ZM149.513 85.4619C154.095 85.4619 157.953 83.8945 161.088 80.7597C164.223 77.5445 165.79 73.3647 165.79 68.2204V67.3764C165.79 63.9201 165.067 60.8255 163.62 58.0926C162.173 55.3597 160.204 53.2296 157.712 51.7024C155.22 50.1752 152.487 49.4115 149.513 49.4115C144.369 49.4115 140.39 51.0995 137.577 54.4755C134.763 57.771 133.357 62.0714 133.357 67.3764C133.357 72.7619 134.723 77.1426 137.456 80.5185C140.269 83.8141 144.288 85.4619 149.513 85.4619Z" fill="#211F30"/>
<path d="M210.432 66.5324L191.02 39.8865H206.453L217.787 57.0074L228.517 39.8865H244.312L224.78 65.809L246 95.228H231.049L217.907 75.6958L205.368 95.228H189.694L210.432 66.5324Z" fill="#211F30"/>
</svg>
