<svg width="534" height="362" viewBox="0 0 534 362" fill="none" xmlns="http://www.w3.org/2000/svg">
<path fill-rule="evenodd" clip-rule="evenodd" d="M0 0H35.8389L17.9195 35.8389L0 0ZM53.7584 107.517H89.5973L71.6778 143.356L53.7584 107.517Z" fill="#F8801B" fill-opacity="0.15"/>
<path fill-rule="evenodd" clip-rule="evenodd" d="M0 217.901H35.8389L17.9195 253.74L0 217.901ZM53.7584 325.417H89.5973L71.6778 361.256L53.7584 325.417Z" fill="#F8801B" fill-opacity="0.15"/>
<path fill-rule="evenodd" clip-rule="evenodd" d="M266.642 0H302.481L284.561 35.8389L266.642 0ZM320.4 107.517H356.239L338.319 143.356L320.4 107.517Z" fill="#F8801B" fill-opacity="0.15"/>
<path fill-rule="evenodd" clip-rule="evenodd" d="M266.642 217.901H302.481L284.561 253.74L266.642 217.901ZM320.4 325.417H356.239L338.319 361.256L320.4 325.417Z" fill="#F8801B" fill-opacity="0.15"/>
<path fill-rule="evenodd" clip-rule="evenodd" d="M88.8804 0H124.719L106.8 35.8389L88.8804 0ZM142.639 107.517H178.478L160.558 143.356L142.639 107.517Z" fill="#F8801B" fill-opacity="0.15"/>
<path fill-rule="evenodd" clip-rule="evenodd" d="M88.8804 217.901H124.719L106.8 253.74L88.8804 217.901ZM142.639 325.417H178.478L160.558 361.256L142.639 325.417Z" fill="#F8801B" fill-opacity="0.15"/>
<path fill-rule="evenodd" clip-rule="evenodd" d="M355.522 0H391.361L373.441 35.8389L355.522 0ZM409.28 107.517H445.119L427.2 143.356L409.28 107.517Z" fill="#F8801B" fill-opacity="0.15"/>
<path fill-rule="evenodd" clip-rule="evenodd" d="M355.522 217.901H391.361L373.441 253.74L355.522 217.901ZM409.28 325.417H445.119L427.2 361.256L409.28 325.417Z" fill="#F8801B" fill-opacity="0.15"/>
<path fill-rule="evenodd" clip-rule="evenodd" d="M177.761 0H213.6L195.681 35.8389L177.761 0ZM231.52 107.517H267.359L249.439 143.356L231.52 107.517Z" fill="#F8801B" fill-opacity="0.15"/>
<path fill-rule="evenodd" clip-rule="evenodd" d="M177.761 217.901H213.6L195.681 253.74L177.761 217.901ZM231.52 325.417H267.359L249.439 361.256L231.52 325.417Z" fill="#F8801B" fill-opacity="0.15"/>
<path fill-rule="evenodd" clip-rule="evenodd" d="M444.403 0H480.242L462.322 35.8389L444.403 0ZM498.161 107.517H534L516.081 143.356L498.161 107.517Z" fill="#F8801B" fill-opacity="0.15"/>
<path fill-rule="evenodd" clip-rule="evenodd" d="M444.403 217.901H480.242L462.322 253.74L444.403 217.901ZM498.161 325.417H534L516.081 361.256L498.161 325.417Z" fill="#F8801B" fill-opacity="0.15"/>
</svg>
