<svg width="1920" height="278" viewBox="0 0 1920 278" fill="none" xmlns="http://www.w3.org/2000/svg">
<path d="M237.389 208.624C250.714 203.054 263.731 194.103 280.781 180.428C299.52 165.447 308.506 159.07 322.061 152.617C340.07 143.935 360 139.479 384 139.479V163.142C379.238 162.719 374.131 162.527 368.64 162.527C331.814 162.527 313.997 171.094 279.821 198.406C274.906 202.362 270.643 205.704 266.765 208.624H237.389ZM146.611 208.624H86.4768C82.6368 205.704 78.4128 202.362 73.4208 198.406C44.4288 175.204 27.1872 165.524 0 163.142V139.479C24 139.479 43.9296 143.935 61.9776 152.617C75.5328 159.147 84.5184 165.485 103.181 180.428C120.269 194.103 133.286 203.092 146.611 208.624ZM237.389 139.479H266.803C258.079 146.357 248.627 152.256 238.618 157.073C220.57 165.754 200.64 170.21 176.64 170.21C152.64 170.21 132.71 165.754 114.662 157.073C104.653 152.256 95.2009 146.357 86.4768 139.479H146.611C159.936 145.011 173.606 147.162 192 147.162C210.432 147.162 224.064 145.011 237.389 139.479Z" fill="#7B61FF" fill-opacity="0.15"/>
<path d="M237.389 277.769C250.714 272.199 263.731 263.248 280.781 249.573C299.52 234.592 308.506 228.215 322.061 221.761C340.07 213.08 360 208.624 384 208.624V232.287C379.238 231.864 374.131 231.672 368.64 231.672C331.814 231.672 313.997 240.238 279.821 267.551C274.906 271.507 270.643 274.849 266.765 277.769H237.389ZM146.611 277.769H86.4768C82.6368 274.849 78.4128 271.507 73.4208 267.551C44.4288 244.349 27.1872 234.668 0 232.287V208.624C24 208.624 43.9296 213.08 61.9776 221.761C75.5328 228.292 84.5184 234.63 103.181 249.573C120.269 263.248 133.286 272.237 146.611 277.769ZM237.389 208.624H266.803C258.079 215.501 248.627 221.401 238.618 226.217C220.57 234.899 200.64 239.355 176.64 239.355C152.64 239.355 132.71 234.899 114.662 226.217C104.653 221.401 95.2009 215.501 86.4768 208.624H146.611C159.936 214.155 173.606 216.307 192 216.307C210.432 216.307 224.064 214.155 237.389 208.624Z" fill="#7B61FF" fill-opacity="0.15"/>
<path d="M621.389 208.624C634.714 203.054 647.731 194.103 664.781 180.428C683.52 165.447 692.506 159.07 706.061 152.617C724.07 143.935 744 139.479 768 139.479V163.142C763.238 162.719 758.131 162.527 752.64 162.527C715.814 162.527 697.997 171.094 663.821 198.406C658.906 202.362 654.643 205.704 650.765 208.624H621.389ZM530.611 208.624H470.477C466.637 205.704 462.413 202.362 457.421 198.406C428.429 175.204 411.187 165.524 384 163.142V139.479C408 139.479 427.93 143.935 445.978 152.617C459.533 159.147 468.518 165.485 487.181 180.428C504.269 194.103 517.286 203.092 530.611 208.624ZM621.389 139.479H650.803C642.079 146.357 632.627 152.256 622.618 157.073C604.57 165.754 584.64 170.21 560.64 170.21C536.64 170.21 516.71 165.754 498.662 157.073C488.653 152.256 479.201 146.357 470.477 139.479H530.611C543.936 145.011 557.606 147.162 576 147.162C594.432 147.162 608.064 145.011 621.389 139.479Z" fill="#7B61FF" fill-opacity="0.15"/>
<path d="M621.389 277.769C634.714 272.199 647.731 263.248 664.781 249.573C683.52 234.592 692.506 228.215 706.061 221.761C724.07 213.08 744 208.624 768 208.624V232.287C763.238 231.864 758.131 231.672 752.64 231.672C715.814 231.672 697.997 240.238 663.821 267.551C658.906 271.507 654.643 274.849 650.765 277.769H621.389ZM530.611 277.769H470.477C466.637 274.849 462.413 271.507 457.421 267.551C428.429 244.349 411.187 234.668 384 232.287V208.624C408 208.624 427.93 213.08 445.978 221.761C459.533 228.292 468.518 234.63 487.181 249.573C504.269 263.248 517.286 272.237 530.611 277.769ZM621.389 208.624H650.803C642.079 215.501 632.627 221.401 622.618 226.217C604.57 234.899 584.64 239.355 560.64 239.355C536.64 239.355 516.71 234.899 498.662 226.217C488.653 221.401 479.201 215.501 470.477 208.624H530.611C543.936 214.155 557.606 216.307 576 216.307C594.432 216.307 608.064 214.155 621.389 208.624Z" fill="#7B61FF" fill-opacity="0.15"/>
<path d="M1005.39 208.624C1018.71 203.054 1031.73 194.103 1048.78 180.428C1067.52 165.447 1076.51 159.07 1090.06 152.617C1108.07 143.935 1128 139.479 1152 139.479V163.142C1147.24 162.719 1142.13 162.527 1136.64 162.527C1099.81 162.527 1082 171.094 1047.82 198.406C1042.91 202.362 1038.64 205.704 1034.76 208.624H1005.39ZM914.611 208.624H854.477C850.637 205.704 846.413 202.362 841.421 198.406C812.429 175.204 795.187 165.524 768 163.142V139.479C792 139.479 811.93 143.935 829.978 152.617C843.533 159.147 852.518 165.485 871.181 180.428C888.269 194.103 901.286 203.092 914.611 208.624ZM1005.39 139.479H1034.8C1026.08 146.357 1016.63 152.256 1006.62 157.073C988.57 165.754 968.64 170.21 944.64 170.21C920.64 170.21 900.71 165.754 882.662 157.073C872.653 152.256 863.201 146.357 854.477 139.479H914.611C927.936 145.011 941.606 147.162 960 147.162C978.432 147.162 992.064 145.011 1005.39 139.479Z" fill="#7B61FF" fill-opacity="0.15"/>
<path d="M1005.39 277.769C1018.71 272.199 1031.73 263.248 1048.78 249.573C1067.52 234.592 1076.51 228.215 1090.06 221.761C1108.07 213.08 1128 208.624 1152 208.624V232.287C1147.24 231.864 1142.13 231.672 1136.64 231.672C1099.81 231.672 1082 240.238 1047.82 267.551C1042.91 271.507 1038.64 274.849 1034.76 277.769H1005.39ZM914.611 277.769H854.477C850.637 274.849 846.413 271.507 841.421 267.551C812.429 244.349 795.187 234.668 768 232.287V208.624C792 208.624 811.93 213.08 829.978 221.761C843.533 228.292 852.518 234.63 871.181 249.573C888.269 263.248 901.286 272.237 914.611 277.769ZM1005.39 208.624H1034.8C1026.08 215.501 1016.63 221.401 1006.62 226.217C988.57 234.899 968.64 239.355 944.64 239.355C920.64 239.355 900.71 234.899 882.662 226.217C872.653 221.401 863.201 215.501 854.477 208.624H914.611C927.936 214.155 941.606 216.307 960 216.307C978.432 216.307 992.064 214.155 1005.39 208.624Z" fill="#7B61FF" fill-opacity="0.15"/>
<path d="M1389.39 208.624C1402.71 203.054 1415.73 194.103 1432.78 180.428C1451.52 165.447 1460.51 159.07 1474.06 152.617C1492.07 143.935 1512 139.479 1536 139.479V163.142C1531.24 162.719 1526.13 162.527 1520.64 162.527C1483.81 162.527 1466 171.094 1431.82 198.406C1426.91 202.362 1422.64 205.704 1418.76 208.624H1389.39ZM1298.61 208.624H1238.48C1234.64 205.704 1230.41 202.362 1225.42 198.406C1196.43 175.204 1179.19 165.524 1152 163.142V139.479C1176 139.479 1195.93 143.935 1213.98 152.617C1227.53 159.147 1236.52 165.485 1255.18 180.428C1272.27 194.103 1285.29 203.092 1298.61 208.624ZM1389.39 139.479H1418.8C1410.08 146.357 1400.63 152.256 1390.62 157.073C1372.57 165.754 1352.64 170.21 1328.64 170.21C1304.64 170.21 1284.71 165.754 1266.66 157.073C1256.65 152.256 1247.2 146.357 1238.48 139.479H1298.61C1311.94 145.011 1325.61 147.162 1344 147.162C1362.43 147.162 1376.06 145.011 1389.39 139.479Z" fill="#7B61FF" fill-opacity="0.15"/>
<path d="M1773.39 208.624C1786.71 203.054 1799.73 194.103 1816.78 180.428C1835.52 165.447 1844.51 159.07 1858.06 152.617C1876.07 143.935 1896 139.479 1920 139.479V163.142C1915.24 162.719 1910.13 162.527 1904.64 162.527C1867.81 162.527 1850 171.094 1815.82 198.406C1810.91 202.362 1806.64 205.704 1802.76 208.624H1773.39ZM1682.61 208.624H1622.48C1618.64 205.704 1614.41 202.362 1609.42 198.406C1580.43 175.204 1563.19 165.524 1536 163.142V139.479C1560 139.479 1579.93 143.935 1597.98 152.617C1611.53 159.147 1620.52 165.485 1639.18 180.428C1656.27 194.103 1669.29 203.092 1682.61 208.624ZM1773.39 139.479H1802.8C1794.08 146.357 1784.63 152.256 1774.62 157.073C1756.57 165.754 1736.64 170.21 1712.64 170.21C1688.64 170.21 1668.71 165.754 1650.66 157.073C1640.65 152.256 1631.2 146.357 1622.48 139.479H1682.61C1695.94 145.011 1709.61 147.162 1728 147.162C1746.43 147.162 1760.06 145.011 1773.39 139.479Z" fill="#7B61FF" fill-opacity="0.15"/>
<path d="M1389.39 277.769C1402.71 272.199 1415.73 263.248 1432.78 249.573C1451.52 234.592 1460.51 228.215 1474.06 221.761C1492.07 213.08 1512 208.624 1536 208.624V232.287C1531.24 231.864 1526.13 231.672 1520.64 231.672C1483.81 231.672 1466 240.238 1431.82 267.551C1426.91 271.507 1422.64 274.849 1418.76 277.769H1389.39ZM1298.61 277.769H1238.48C1234.64 274.849 1230.41 271.507 1225.42 267.551C1196.43 244.349 1179.19 234.668 1152 232.287V208.624C1176 208.624 1195.93 213.08 1213.98 221.761C1227.53 228.292 1236.52 234.63 1255.18 249.573C1272.27 263.248 1285.29 272.237 1298.61 277.769ZM1389.39 208.624H1418.8C1410.08 215.501 1400.63 221.401 1390.62 226.217C1372.57 234.899 1352.64 239.355 1328.64 239.355C1304.64 239.355 1284.71 234.899 1266.66 226.217C1256.65 221.401 1247.2 215.501 1238.48 208.624H1298.61C1311.94 214.155 1325.61 216.307 1344 216.307C1362.43 216.307 1376.06 214.155 1389.39 208.624Z" fill="#7B61FF" fill-opacity="0.15"/>
<path d="M1773.39 277.769C1786.71 272.199 1799.73 263.248 1816.78 249.573C1835.52 234.592 1844.51 228.215 1858.06 221.761C1876.07 213.08 1896 208.624 1920 208.624V232.287C1915.24 231.864 1910.13 231.672 1904.64 231.672C1867.81 231.672 1850 240.238 1815.82 267.551C1810.91 271.507 1806.64 274.849 1802.76 277.769H1773.39ZM1682.61 277.769H1622.48C1618.64 274.849 1614.41 271.507 1609.42 267.551C1580.43 244.349 1563.19 234.668 1536 232.287V208.624C1560 208.624 1579.93 213.08 1597.98 221.761C1611.53 228.292 1620.52 234.63 1639.18 249.573C1656.27 263.248 1669.29 272.237 1682.61 277.769ZM1773.39 208.624H1802.8C1794.08 215.501 1784.63 221.401 1774.62 226.217C1756.57 234.899 1736.64 239.355 1712.64 239.355C1688.64 239.355 1668.71 234.899 1650.66 226.217C1640.65 221.401 1631.2 215.501 1622.48 208.624H1682.61C1695.94 214.155 1709.61 216.307 1728 216.307C1746.43 216.307 1760.06 214.155 1773.39 208.624Z" fill="#7B61FF" fill-opacity="0.15"/>
<path d="M237.389 70.0986C250.714 64.5286 263.731 55.5782 280.781 41.9029C299.52 26.9215 308.506 20.5449 322.061 14.0914C340.07 5.40985 360 0.953857 384 0.953857V24.6167C379.238 24.1942 374.131 24.0021 368.64 24.0021C331.814 24.0021 313.997 32.5684 279.821 59.8805C274.906 63.8371 270.643 67.1791 266.765 70.0986H237.389ZM146.611 70.0986H86.4768C82.6368 67.1791 78.4128 63.8371 73.4208 59.8805C44.4288 36.6786 27.1872 26.9984 0 24.6167V0.953857C24 0.953857 43.9296 5.40985 61.9776 14.0914C75.5328 20.6217 84.5184 26.9599 103.181 41.9029C120.269 55.5782 133.286 64.567 146.611 70.0986ZM237.389 0.953857H266.803C258.079 7.83128 248.627 13.731 238.618 18.5473C220.57 27.2288 200.64 31.6848 176.64 31.6848C152.64 31.6848 132.71 27.2288 114.662 18.5473C104.653 13.731 95.2009 7.83128 86.4768 0.953857L146.611 0.953857C159.936 6.48543 173.606 8.6366 192 8.6366C210.432 8.6366 224.064 6.48543 237.389 0.953857Z" fill="#7B61FF" fill-opacity="0.15"/>
<path d="M237.389 139.243C250.714 133.673 263.731 124.723 280.781 111.048C299.52 96.0663 308.506 89.6896 322.061 83.2361C340.07 74.5546 360 70.0986 384 70.0986V93.7615C379.238 93.3389 374.131 93.1469 368.64 93.1469C331.814 93.1469 313.997 101.713 279.821 129.025C274.906 132.982 270.643 136.324 266.765 139.243H237.389ZM146.611 139.243H86.4768C82.6368 136.324 78.4128 132.982 73.4208 129.025C44.4288 105.823 27.1872 96.1431 0 93.7615V70.0986C24 70.0986 43.9296 74.5546 61.9776 83.2361C75.5328 89.7665 84.5184 96.1047 103.181 111.048C120.269 124.723 133.286 133.712 146.611 139.243ZM237.389 70.0986H266.803C258.079 76.9761 248.627 82.8758 238.618 87.6921C220.57 96.3736 200.64 100.83 176.64 100.83C152.64 100.83 132.71 96.3736 114.662 87.6921C104.653 82.8758 95.2009 76.9761 86.4768 70.0986L146.611 70.0986C159.936 75.6302 173.606 77.7814 192 77.7814C210.432 77.7814 224.064 75.6302 237.389 70.0986Z" fill="#7B61FF" fill-opacity="0.15"/>
<path d="M621.389 70.0986C634.714 64.5286 647.731 55.5782 664.781 41.9029C683.52 26.9215 692.506 20.5449 706.061 14.0914C724.07 5.40985 744 0.953857 768 0.953857V24.6167C763.238 24.1942 758.131 24.0021 752.64 24.0021C715.814 24.0021 697.997 32.5684 663.821 59.8805C658.906 63.8371 654.643 67.1791 650.765 70.0986H621.389ZM530.611 70.0986H470.477C466.637 67.1791 462.413 63.8371 457.421 59.8805C428.429 36.6786 411.187 26.9984 384 24.6167V0.953857C408 0.953857 427.93 5.40985 445.978 14.0914C459.533 20.6217 468.518 26.9599 487.181 41.9029C504.269 55.5782 517.286 64.567 530.611 70.0986ZM621.389 0.953857H650.803C642.079 7.83128 632.627 13.731 622.618 18.5473C604.57 27.2288 584.64 31.6848 560.64 31.6848C536.64 31.6848 516.71 27.2288 498.662 18.5473C488.653 13.731 479.201 7.83128 470.477 0.953857L530.611 0.953857C543.936 6.48543 557.606 8.6366 576 8.6366C594.432 8.6366 608.064 6.48543 621.389 0.953857Z" fill="#7B61FF" fill-opacity="0.15"/>
<path d="M621.389 139.243C634.714 133.673 647.731 124.723 664.781 111.048C683.52 96.0663 692.506 89.6896 706.061 83.2361C724.07 74.5546 744 70.0986 768 70.0986V93.7615C763.238 93.3389 758.131 93.1469 752.64 93.1469C715.814 93.1469 697.997 101.713 663.821 129.025C658.906 132.982 654.643 136.324 650.765 139.243H621.389ZM530.611 139.243H470.477C466.637 136.324 462.413 132.982 457.421 129.025C428.429 105.823 411.187 96.1431 384 93.7615V70.0986C408 70.0986 427.93 74.5546 445.978 83.2361C459.533 89.7665 468.518 96.1047 487.181 111.048C504.269 124.723 517.286 133.712 530.611 139.243ZM621.389 70.0986H650.803C642.079 76.9761 632.627 82.8758 622.618 87.6921C604.57 96.3736 584.64 100.83 560.64 100.83C536.64 100.83 516.71 96.3736 498.662 87.6921C488.653 82.8758 479.201 76.9761 470.477 70.0986L530.611 70.0986C543.936 75.6302 557.606 77.7814 576 77.7814C594.432 77.7814 608.064 75.6302 621.389 70.0986Z" fill="#7B61FF" fill-opacity="0.15"/>
<path d="M1005.39 70.0986C1018.71 64.5286 1031.73 55.5782 1048.78 41.9029C1067.52 26.9215 1076.51 20.5449 1090.06 14.0914C1108.07 5.40985 1128 0.953857 1152 0.953857V24.6167C1147.24 24.1942 1142.13 24.0021 1136.64 24.0021C1099.81 24.0021 1082 32.5684 1047.82 59.8805C1042.91 63.8371 1038.64 67.1791 1034.76 70.0986H1005.39ZM914.611 70.0986H854.477C850.637 67.1791 846.413 63.8371 841.421 59.8805C812.429 36.6786 795.187 26.9984 768 24.6167V0.953857C792 0.953857 811.93 5.40985 829.978 14.0914C843.533 20.6217 852.518 26.9599 871.181 41.9029C888.269 55.5782 901.286 64.567 914.611 70.0986ZM1005.39 0.953857H1034.8C1026.08 7.83128 1016.63 13.731 1006.62 18.5473C988.57 27.2288 968.64 31.6848 944.64 31.6848C920.64 31.6848 900.71 27.2288 882.662 18.5473C872.653 13.731 863.201 7.83128 854.477 0.953857L914.611 0.953857C927.936 6.48543 941.606 8.6366 960 8.6366C978.432 8.6366 992.064 6.48543 1005.39 0.953857Z" fill="#7B61FF" fill-opacity="0.15"/>
<path d="M1005.39 139.243C1018.71 133.673 1031.73 124.723 1048.78 111.048C1067.52 96.0663 1076.51 89.6896 1090.06 83.2361C1108.07 74.5546 1128 70.0986 1152 70.0986V93.7615C1147.24 93.3389 1142.13 93.1469 1136.64 93.1469C1099.81 93.1469 1082 101.713 1047.82 129.025C1042.91 132.982 1038.64 136.324 1034.76 139.243H1005.39ZM914.611 139.243H854.477C850.637 136.324 846.413 132.982 841.421 129.025C812.429 105.823 795.187 96.1431 768 93.7615V70.0986C792 70.0986 811.93 74.5546 829.978 83.2361C843.533 89.7665 852.518 96.1047 871.181 111.048C888.269 124.723 901.286 133.712 914.611 139.243ZM1005.39 70.0986H1034.8C1026.08 76.9761 1016.63 82.8758 1006.62 87.6921C988.57 96.3736 968.64 100.83 944.64 100.83C920.64 100.83 900.71 96.3736 882.662 87.6921C872.653 82.8758 863.201 76.9761 854.477 70.0986L914.611 70.0986C927.936 75.6302 941.606 77.7814 960 77.7814C978.432 77.7814 992.064 75.6302 1005.39 70.0986Z" fill="#7B61FF" fill-opacity="0.15"/>
<path d="M1389.39 70.0986C1402.71 64.5286 1415.73 55.5782 1432.78 41.9029C1451.52 26.9215 1460.51 20.5449 1474.06 14.0914C1492.07 5.40985 1512 0.953857 1536 0.953857V24.6167C1531.24 24.1942 1526.13 24.0021 1520.64 24.0021C1483.81 24.0021 1466 32.5684 1431.82 59.8805C1426.91 63.8371 1422.64 67.1791 1418.76 70.0986H1389.39ZM1298.61 70.0986H1238.48C1234.64 67.1791 1230.41 63.8371 1225.42 59.8805C1196.43 36.6786 1179.19 26.9984 1152 24.6167V0.953857C1176 0.953857 1195.93 5.40985 1213.98 14.0914C1227.53 20.6217 1236.52 26.9599 1255.18 41.9029C1272.27 55.5782 1285.29 64.567 1298.61 70.0986ZM1389.39 0.953857H1418.8C1410.08 7.83128 1400.63 13.731 1390.62 18.5473C1372.57 27.2288 1352.64 31.6848 1328.64 31.6848C1304.64 31.6848 1284.71 27.2288 1266.66 18.5473C1256.65 13.731 1247.2 7.83128 1238.48 0.953857L1298.61 0.953857C1311.94 6.48543 1325.61 8.6366 1344 8.6366C1362.43 8.6366 1376.06 6.48543 1389.39 0.953857Z" fill="#7B61FF" fill-opacity="0.15"/>
<path d="M1389.39 139.243C1402.71 133.673 1415.73 124.723 1432.78 111.048C1451.52 96.0663 1460.51 89.6896 1474.06 83.2361C1492.07 74.5546 1512 70.0986 1536 70.0986V93.7615C1531.24 93.3389 1526.13 93.1469 1520.64 93.1469C1483.81 93.1469 1466 101.713 1431.82 129.025C1426.91 132.982 1422.64 136.324 1418.76 139.243H1389.39ZM1298.61 139.243H1238.48C1234.64 136.324 1230.41 132.982 1225.42 129.025C1196.43 105.823 1179.19 96.1431 1152 93.7615V70.0986C1176 70.0986 1195.93 74.5546 1213.98 83.2361C1227.53 89.7665 1236.52 96.1047 1255.18 111.048C1272.27 124.723 1285.29 133.712 1298.61 139.243ZM1389.39 70.0986H1418.8C1410.08 76.9761 1400.63 82.8758 1390.62 87.6921C1372.57 96.3736 1352.64 100.83 1328.64 100.83C1304.64 100.83 1284.71 96.3736 1266.66 87.6921C1256.65 82.8758 1247.2 76.9761 1238.48 70.0986L1298.61 70.0986C1311.94 75.6302 1325.61 77.7814 1344 77.7814C1362.43 77.7814 1376.06 75.6302 1389.39 70.0986Z" fill="#7B61FF" fill-opacity="0.15"/>
<path d="M1773.39 70.0986C1786.71 64.5286 1799.73 55.5782 1816.78 41.9029C1835.52 26.9215 1844.51 20.5449 1858.06 14.0914C1876.07 5.40985 1896 0.953857 1920 0.953857V24.6167C1915.24 24.1942 1910.13 24.0021 1904.64 24.0021C1867.81 24.0021 1850 32.5684 1815.82 59.8805C1810.91 63.8371 1806.64 67.1791 1802.76 70.0986H1773.39ZM1682.61 70.0986H1622.48C1618.64 67.1791 1614.41 63.8371 1609.42 59.8805C1580.43 36.6786 1563.19 26.9984 1536 24.6167V0.953857C1560 0.953857 1579.93 5.40985 1597.98 14.0914C1611.53 20.6217 1620.52 26.9599 1639.18 41.9029C1656.27 55.5782 1669.29 64.567 1682.61 70.0986ZM1773.39 0.953857H1802.8C1794.08 7.83128 1784.63 13.731 1774.62 18.5473C1756.57 27.2288 1736.64 31.6848 1712.64 31.6848C1688.64 31.6848 1668.71 27.2288 1650.66 18.5473C1640.65 13.731 1631.2 7.83128 1622.48 0.953857L1682.61 0.953857C1695.94 6.48543 1709.61 8.6366 1728 8.6366C1746.43 8.6366 1760.06 6.48543 1773.39 0.953857Z" fill="#7B61FF" fill-opacity="0.15"/>
<path d="M1773.39 139.243C1786.71 133.673 1799.73 124.723 1816.78 111.048C1835.52 96.0663 1844.51 89.6896 1858.06 83.2361C1876.07 74.5546 1896 70.0986 1920 70.0986V93.7615C1915.24 93.3389 1910.13 93.1469 1904.64 93.1469C1867.81 93.1469 1850 101.713 1815.82 129.025C1810.91 132.982 1806.64 136.324 1802.76 139.243H1773.39ZM1682.61 139.243H1622.48C1618.64 136.324 1614.41 132.982 1609.42 129.025C1580.43 105.823 1563.19 96.1431 1536 93.7615V70.0986C1560 70.0986 1579.93 74.5546 1597.98 83.2361C1611.53 89.7665 1620.52 96.1047 1639.18 111.048C1656.27 124.723 1669.29 133.712 1682.61 139.243ZM1773.39 70.0986H1802.8C1794.08 76.9761 1784.63 82.8758 1774.62 87.6921C1756.57 96.3736 1736.64 100.83 1712.64 100.83C1688.64 100.83 1668.71 96.3736 1650.66 87.6921C1640.65 82.8758 1631.2 76.9761 1622.48 70.0986L1682.61 70.0986C1695.94 75.6302 1709.61 77.7814 1728 77.7814C1746.43 77.7814 1760.06 75.6302 1773.39 70.0986Z" fill="#7B61FF" fill-opacity="0.15"/>
</svg>
